Coordinates
version=1
nRows=4
nColumns=107
inDegrees=yes

Units are S.I. units (second, meters, Newtons, ...)
If the header above contains a line with 'inDegrees', this indicates whether rotational values are in degrees (yes) or radians (no).

endheader
time	sternoclavicular_r2	sternoclavicular_r3	unrotscap_r3	unrotscap_r2	acromioclavicular_r2	acromioclavicular_r3	acromioclavicular_r1	unrothum_r1	unrothum_r3	unrothum_r2	elv_angle	shoulder_elv	shoulder1_r2	shoulder_rot	elbow_flexion	pro_sup	deviation	flexion	proximal_distal_r1	proximal_distal_r3	cmc_flexion	cmc_abduction	mp_flexion	ip_flexion	mcp2_flexion	mcp2_abduction	pm2_flexion	md2_flexion	mcp3_flexion	mcp3_abduction	pm3_flexion	md3_flexion	mcp4_flexion	mcp4_abduction	pm4_flexion	md4_flexion	mcp5_flexion	mcp5_abduction	pm5_flexion	md5_flexion	bicpt_tx	bicpt_ty	bicpt_tz	bicpt2_tx	bicpt2_ty	bicpt2_tz	ptpt_tx	ptpt_ty	ptpt_tz	FCUpt_tx	FCUpt_ty	FCUpt_tz	EDCpt_tx	EDCpt_ty	EDCpt_tz	APLpt_tx	APLpt_ty	APLpt_tz	FPLpt_tx	FPLpt_ty	FPLpt_tz	FPLpt2_tx	FPLpt2_ty	FPLpt2_tz	PEC1pt2_tx	PEC1pt2_ty	PEC1pt2_tz	PEC1pt3_tx	PEC1pt3_ty	PEC1pt3_tz	PEC2pt2_tx	PEC2pt2_ty	PEC2pt2_tz	PEC2pt3_tx	PEC2pt3_ty	PEC2pt3_tz	PEC3pt2_tx	PEC3pt2_ty	PEC3pt2_tz	PEC3pt3_tx	PEC3pt3_ty	PEC3pt3_tz	DELT2pt2a_tx	DELT2pt2a_ty	DELT2pt2a_tz	DELT2pt2_tx	DELT2pt2_ty	DELT2pt2_tz	LAT1pt2_tx	LAT1pt2_ty	LAT1pt2_tz	LAT1pt3_tx	LAT1pt3_ty	LAT1pt3_tz	LAT2pt2_tx	LAT2pt2_ty	LAT2pt2_tz	LAT2pt3_tx	LAT2pt3_ty	LAT2pt3_tz	LAT3pt2_tx	LAT3pt2_ty	LAT3pt2_tz	LAT3pt3_tx	LAT3pt3_ty	LAT3pt3_tz
      1.43333333	     -0.32077377	      0.13586463	     -0.13586463	      0.32077377	     -0.06495016	      0.52490437	      0.23594090	     -0.23594090	     -0.52490437	      0.06495016	     99.67957968	     75.94604150	     -1.73973686	    -26.20680164	     30.54595628	     56.56501749	      0.26442318	     -0.04063189	      0.30162989	     -0.02031594	     31.73641955	    -21.77999374	     -1.51337200	      3.03206128	      0.63185850	      8.36198807	     24.44716491	    -10.81481334	     -2.93566015	      2.81478780	     13.67704026	     15.23278834	     -1.85063348	     -5.98715518	      9.21191263	     22.04556436	     -7.90630532	    -13.72186688	      7.09384739	      5.19991761	      0.00091037	     -0.03110103	     -0.00486392	      0.01629147	     -0.01849796	     -0.00550932	      0.00337048	     -0.06760254	     -0.00460662	      0.00949033	     -0.18311151	     -0.00040069	     -0.00678779	      0.00209644	     -0.00004686	      0.00004019	      0.00001608	      0.00008038	      0.00005144	      0.00015433	      0.00008681	     -0.00001061	     -0.00023386	     -0.00028063	      0.00248934	      0.00873380	      0.00607569	     -0.00814311	      0.01966160	     -0.01864899	      0.00248934	      0.00873380	      0.00607569	      0.00054850	      0.01822707	     -0.00957765	      0.00393957	      0.00485676	      0.01594714	      0.00000000	      0.00771333	      0.00000000	     -0.00713050	     -0.03295217	     -0.00635962	      0.01710027	     -0.00062978	     -0.00574261	     -0.00088604	      0.01485168	     -0.00607569	      0.00244715	      0.02143368	     -0.01772076	     -0.00594911	      0.01286865	     -0.00544280	     -0.01240453	      0.02717183	     -0.03042063	     -0.02329014	      0.01438757	     -0.00729926	     -0.01544237	      0.03139106	     -0.03801525
      1.46666667	     -0.32065870	      0.13581589	     -0.13581589	      0.32065870	     -0.06492686	      0.52471608	      0.23585626	     -0.23585626	     -0.52471608	      0.06492686	     99.67637253	     75.91879727	     -1.73968089	    -26.14487551	     30.53996754	     57.60497999	      0.27830192	     -0.11075375	      0.31430030	     -0.05537688	     30.43495577	    -22.09409302	     -4.57548771	     -1.33391187	      4.83191435	      7.95481917	     27.98579950	     -8.63560252	      2.11746665	      2.32818774	     14.63077149	     16.76435877	      2.60159985	     -5.89377728	     12.17407510	     23.61544969	     -2.13533629	    -13.70410206	      9.33424813	      5.18441738	      0.00091017	     -0.03110035	     -0.00486381	      0.01625277	     -0.01849633	     -0.00537339	      0.00329364	     -0.06765223	     -0.00469039	      0.00960051	     -0.18308484	     -0.00039469	     -0.00691258	      0.00214422	     -0.00006395	      0.00010304	      0.00004122	      0.00020609	      0.00013190	      0.00039569	      0.00022258	     -0.00000912	     -0.00024628	     -0.00029554	      0.00248845	      0.00873067	      0.00607351	     -0.00814019	      0.01965455	     -0.01864230	      0.00248845	      0.00873067	      0.00607351	      0.00054830	      0.01822053	     -0.00957421	      0.00393853	      0.00485501	      0.01594460	      0.00000000	      0.00770776	      0.00000000	     -0.00712794	     -0.03294035	     -0.00635500	      0.01706970	     -0.00062774	     -0.00571545	     -0.00088572	      0.01484636	     -0.00607351	      0.00244627	      0.02142599	     -0.01771440	     -0.00594698	      0.01286403	     -0.00544085	     -0.01240008	      0.02716208	     -0.03040972	     -0.02328178	      0.01438241	     -0.00729665	     -0.01543684	      0.03137980	     -0.03800161
      1.50000000	     -0.32010016	      0.13557932	     -0.13557932	      0.32010016	     -0.06481377	      0.52380209	      0.23544543	     -0.23544543	     -0.52380209	      0.06481377	     99.73589122	     75.78655701	     -1.74071968	    -26.70719966	     30.74484307	     59.76926892	      0.29446525	     -0.13622774	      0.32865871	     -0.06811387	     27.71473924	    -22.21819064	     -6.16857413	     -1.54724016	      8.12932295	      7.49625796	     30.79926974	     -6.72720661	      5.42003423	      2.04084296	     17.16246617	     17.83729969	      5.62382111	     -5.61199240	     16.45049459	     24.88917055	      2.16366167	    -13.62641885	     12.62822078	      5.25257829	      0.00091694	     -0.03112383	     -0.00486760	      0.01616429	     -0.01855199	     -0.00508565	      0.00313373	     -0.06775564	     -0.00486474	      0.00983089	     -0.18302833	     -0.00037960	     -0.00717230	      0.00224475	     -0.00010141	      0.00012384	      0.00004954	      0.00024768	      0.00015852	      0.00047555	      0.00026750	     -0.00000499	     -0.00026615	     -0.00031937	      0.00248412	      0.00871546	      0.00606293	     -0.00812601	      0.01962031	     -0.01860983	      0.00248412	      0.00871546	      0.00606293	      0.00054735	      0.01818879	     -0.00955753	      0.00393351	      0.00484656	      0.01593226	      0.00000000	      0.00768075	      0.00000000	     -0.00711552	     -0.03288297	     -0.00633257	      0.01734585	     -0.00064632	     -0.00596352	     -0.00088418	      0.01482049	     -0.00606293	      0.00244201	      0.02138867	     -0.01768354	     -0.00593662	      0.01284162	     -0.00543137	     -0.01237848	      0.02711477	     -0.03035675	     -0.02324123	      0.01435735	     -0.00728394	     -0.01540995	      0.03132514	     -0.03793541
      1.53333333	     -0.31984534	      0.13547139	     -0.13547139	      0.31984534	     -0.06476217	      0.52338512	      0.23525801	     -0.23525801	     -0.52338512	      0.06476217	     99.53254847	     75.72622699	     -1.73717068	    -26.74580104	     31.30857884	     60.74624674	      0.29944729	     -0.13264144	      0.33299799	     -0.06632072	     24.29882066	    -22.22012347	     -8.12142393	     -2.18378739	     10.38858891	      5.89849855	     32.53503474	     -5.96555959	      7.25921189	      1.01625192	     18.54878431	     18.35969272	      7.05988509	     -5.65516272	     18.05513448	     25.48080502	      3.86291409	    -13.53399036	     14.07718794	      5.49907690	      0.00093559	     -0.03118844	     -0.00487800	      0.01612084	     -0.01870513	     -0.00495360	      0.00306154	     -0.06780231	     -0.00494344	      0.00993536	     -0.18300239	     -0.00037163	     -0.00728953	      0.00229060	     -0.00011915	      0.00012098	      0.00004839	      0.00024195	      0.00015485	      0.00046455	      0.00026131	      0.00000174	     -0.00027945	     -0.00033534	      0.00248214	      0.00870852	      0.00605810	     -0.00811954	      0.01960470	     -0.01859501	      0.00248214	      0.00870852	      0.00605810	      0.00054691	      0.01817431	     -0.00954993	      0.00393122	      0.00484270	      0.01592662	      0.00000000	      0.00766844	      0.00000000	     -0.00710986	     -0.03285680	     -0.00632235	      0.01736461	     -0.00064760	     -0.00598075	     -0.00088347	      0.01480870	     -0.00605810	      0.00244007	      0.02137164	     -0.01766947	     -0.00593189	      0.01283140	     -0.00542705	     -0.01236863	      0.02709318	     -0.03033259	     -0.02322273	      0.01434593	     -0.00727814	     -0.01539768	      0.03130020	     -0.03790522
